<svg width="40" height="40" viewBox="0 0 40 40" fill="none" xmlns="http://www.w3.org/2000/svg">
<path d="M17.0449 17.3167C16.1143 17.3167 15.3796 18.15 15.3796 19.1667C15.3796 20.1833 16.1306 21.0167 17.0449 21.0167C17.9755 21.0167 18.7102 20.1833 18.7102 19.1667C18.7265 18.15 17.9755 17.3167 17.0449 17.3167ZM23.0041 17.3167C22.0735 17.3167 21.3388 18.15 21.3388 19.1667C21.3388 20.1833 22.0898 21.0167 23.0041 21.0167C23.9347 21.0167 24.6694 20.1833 24.6694 19.1667C24.6694 18.15 23.9347 17.3167 23.0041 17.3167Z" fill="#D4E3CF"/>
<path d="M30.9388 3.33334H9.06123C7.21634 3.33334 5.71429 4.86668 5.71429 6.76668V29.3C5.71429 31.2 7.21634 32.7333 9.06123 32.7333H27.5755L26.7102 29.65L28.8 31.6333L30.7755 33.5L34.2857 36.6667V6.76668C34.2857 4.86668 32.7837 3.33334 30.9388 3.33334ZM24.6367 25.1C24.6367 25.1 24.049 24.3833 23.5592 23.75C25.698 23.1333 26.5143 21.7667 26.5143 21.7667C25.8449 22.2167 25.2082 22.5333 24.6367 22.75C23.8204 23.1 23.0367 23.3333 22.2694 23.4667C20.702 23.7667 19.2653 23.6833 18.0408 23.45C17.1102 23.2667 16.3102 23 15.6408 22.7333C15.2653 22.5833 14.8572 22.4 14.449 22.1667C14.4 22.1333 14.351 22.1167 14.302 22.0833C14.2694 22.0667 14.2531 22.05 14.2367 22.0333C13.9429 21.8667 13.7796 21.75 13.7796 21.75C13.7796 21.75 14.5633 23.0833 16.6367 23.7167C16.1469 24.35 15.5429 25.1 15.5429 25.1C11.9347 24.9833 10.5633 22.5667 10.5633 22.5667C10.5633 17.2 12.9143 12.85 12.9143 12.85C15.2653 11.05 17.502 11.1 17.502 11.1L17.6653 11.3C14.7265 12.1667 13.3714 13.4833 13.3714 13.4833C13.3714 13.4833 13.7306 13.2833 14.3347 13C16.0816 12.2167 17.4694 12 18.0408 11.95C18.1388 11.9333 18.2204 11.9167 18.3184 11.9167C19.3143 11.7833 20.4408 11.75 21.6163 11.8833C23.1674 12.0667 24.8327 12.5333 26.5306 13.4833C26.5306 13.4833 25.2408 12.2333 22.4653 11.3667L22.6939 11.1C22.6939 11.1 24.9306 11.05 27.2816 12.85C27.2816 12.85 29.6327 17.2 29.6327 22.5667C29.6327 22.5667 28.2449 24.9833 24.6367 25.1Z" fill="#D4E3CF"/>
</svg>
