<svg width="41" height="40" viewBox="0 0 41 40" fill="none" xmlns="http://www.w3.org/2000/svg">
<path d="M13.0713 35C27.545 35 35.4615 23.4571 35.4615 13.4472C35.4615 13.1193 35.4615 12.7929 35.4385 12.468C36.9785 11.3957 38.308 10.068 39.3645 8.54705C37.9283 9.15964 36.4047 9.56137 34.8447 9.73885C36.4875 8.79217 37.7169 7.30322 38.3044 5.54909C36.7596 6.43142 35.0697 7.05325 33.3074 7.38774C32.121 6.17332 30.5518 5.36916 28.8427 5.09971C27.1336 4.83025 25.3799 5.11052 23.853 5.89714C22.326 6.68377 21.111 7.93289 20.3959 9.45122C19.6807 10.9695 19.5054 12.6724 19.897 14.2963C16.7683 14.1454 13.7077 13.3627 10.9136 11.9993C8.1196 10.6358 5.65467 8.72197 3.67886 6.38202C2.67257 8.0496 2.36436 10.0237 2.81699 11.9023C3.26963 13.781 4.44907 15.4229 6.11518 16.4939C4.86287 16.4581 3.63787 16.1329 2.54355 15.5457C2.54355 15.5768 2.54355 15.6092 2.54355 15.6417C2.54405 17.3906 3.17298 19.0855 4.32366 20.4389C5.47435 21.7923 7.07595 22.7209 8.85681 23.0672C7.69828 23.3714 6.48275 23.4158 5.30359 23.1972C5.80644 24.7023 6.78542 26.0185 8.10362 26.9617C9.42182 27.9049 11.0133 28.428 12.6555 28.4577C9.86898 30.5657 6.42672 31.7101 2.88261 31.7067C2.25651 31.7055 1.63101 31.669 1.00935 31.5974C4.60803 33.8204 8.79531 34.9996 13.0713 34.9941" fill="#D4E3CF"/>
</svg>
